<?xml version="1.0" encoding="utf-8" standalone="no"?>
<!DOCTYPE svg PUBLIC "-//W3C//DTD SVG 1.1//EN"
  "http://www.w3.org/Graphics/SVG/1.1/DTD/svg11.dtd">
<svg xmlns:xlink="http://www.w3.org/1999/xlink" width="547.2pt" height="244.8pt" viewBox="0 0 547.2 244.8" xmlns="http://www.w3.org/2000/svg" version="1.1">
 <title>Left: distributions of per-run out-of-sample variance for HRP, IVP, CLA and equal weight in the synthetic Monte Carlo. Right: per-run log2 ratios of IVP and CLA variance to HRP variance.</title>
 <metadata>
  <rdf:RDF xmlns:dc="http://purl.org/dc/elements/1.1/" xmlns:cc="http://creativecommons.org/ns#" xmlns:rdf="http://www.w3.org/1999/02/22-rdf-syntax-ns#">
   <cc:Work>
    <dc:type rdf:resource="http://purl.org/dc/dcmitype/StillImage"/>
    <dc:title>Left: distributions of per-run out-of-sample variance for HRP, IVP, CLA and equal weight in the synthetic Monte Carlo. Right: per-run log2 ratios of IVP and CLA variance to HRP variance.</dc:title>
    <dc:format>image/svg+xml</dc:format>
   </cc:Work>
  </rdf:RDF>
 </metadata>
 <defs>
  <style type="text/css">*{stroke-linejoin: round; stroke-linecap: butt}</style>
 </defs>
 <g id="figure_1">
  <g id="patch_1">
   <path d="M 0 244.8 
L 547.2 244.8 
L 547.2 0 
L 0 0 
z
" style="fill: #17140f"/>
  </g>
  <g id="axes_1">
   <g id="patch_2">
    <path d="M 39.724615 211.267026 
L 324.874789 211.267026 
L 324.874789 17.358521 
L 39.724615 17.358521 
z
" style="fill: #17140f"/>
   </g>
   <g id="matplotlib.axis_1">
    <g id="xtick_1">
     <g id="line2d_1">
      <path d="M 148.187894 211.267026 
L 148.187894 17.358521 
" clip-path="url(#pfe982ad7e7)" style="fill: none; stroke: #4c4536; stroke-opacity: 0.6; stroke-width: 0.6; stroke-linecap: square"/>
     </g>
     <g id="line2d_2">
      <defs>
       <path id="mfe43602b47" d="M 0 0 
L 0 3.5 
" style="stroke: #aaa190; stroke-width: 0.8"/>
      </defs>
      <g>
       <use xlink:href="#mfe43602b47" x="148.187894" y="211.267026" style="fill: #aaa190; stroke: #aaa190; stroke-width: 0.8"/>
      </g>
     </g>
     <g id="text_1">
      <!-- $\mathdefault{10^{-4}}$ -->
      <g style="fill: #aaa190" transform="translate(138.200394 226.172026)">
       <text>
        <tspan x="0" y="-0.147312" style="font-size: 8.5px; font-family: 'IBM Plex Sans', system-ui, sans-serif; fill: #aaa190">1</tspan>
        <tspan x="5.407959" y="-0.147312" style="font-size: 8.5px; font-family: 'IBM Plex Sans', system-ui, sans-serif; fill: #aaa190">0</tspan>
        <tspan x="10.897266" y="-3.657813" style="font-size: 5.95px; font-family: 'IBM Plex Sans', system-ui, sans-serif; fill: #aaa190">−</tspan>
        <tspan x="15.882715" y="-3.657813" style="font-size: 5.95px; font-family: 'IBM Plex Sans', system-ui, sans-serif; fill: #aaa190">4</tspan>
       </text>
      </g>
     </g>
    </g>
    <g id="xtick_2">
     <g id="line2d_3">
      <path d="M 268.761725 211.267026 
L 268.761725 17.358521 
" clip-path="url(#pfe982ad7e7)" style="fill: none; stroke: #4c4536; stroke-opacity: 0.6; stroke-width: 0.6; stroke-linecap: square"/>
     </g>
     <g id="line2d_4">
      <g>
       <use xlink:href="#mfe43602b47" x="268.761725" y="211.267026" style="fill: #aaa190; stroke: #aaa190; stroke-width: 0.8"/>
      </g>
     </g>
     <g id="text_2">
      <!-- $\mathdefault{10^{-3}}$ -->
      <g style="fill: #aaa190" transform="translate(258.774225 226.257026)">
       <text>
        <tspan x="0" y="-0.07075" style="font-size: 8.5px; font-family: 'IBM Plex Sans', system-ui, sans-serif; fill: #aaa190">1</tspan>
        <tspan x="5.407959" y="-0.07075" style="font-size: 8.5px; font-family: 'IBM Plex Sans', system-ui, sans-serif; fill: #aaa190">0</tspan>
        <tspan x="10.897266" y="-3.58125" style="font-size: 5.95px; font-family: 'IBM Plex Sans', system-ui, sans-serif; fill: #aaa190">−</tspan>
        <tspan x="15.882715" y="-3.58125" style="font-size: 5.95px; font-family: 'IBM Plex Sans', system-ui, sans-serif; fill: #aaa190">3</tspan>
       </text>
      </g>
     </g>
    </g>
    <g id="xtick_3">
     <g id="line2d_5">
      <defs>
       <path id="m62d460047f" d="M 0 0 
L 0 2 
" style="stroke: #aaa190; stroke-width: 0.6"/>
      </defs>
      <g>
       <use xlink:href="#m62d460047f" x="63.910402" y="211.267026" style="fill: #aaa190; stroke: #aaa190; stroke-width: 0.6"/>
      </g>
     </g>
    </g>
    <g id="xtick_4">
     <g id="line2d_6">
      <g>
       <use xlink:href="#m62d460047f" x="85.1424" y="211.267026" style="fill: #aaa190; stroke: #aaa190; stroke-width: 0.6"/>
      </g>
     </g>
    </g>
    <g id="xtick_5">
     <g id="line2d_7">
      <g>
       <use xlink:href="#m62d460047f" x="100.206742" y="211.267026" style="fill: #aaa190; stroke: #aaa190; stroke-width: 0.6"/>
      </g>
     </g>
    </g>
    <g id="xtick_6">
     <g id="line2d_8">
      <g>
       <use xlink:href="#m62d460047f" x="111.891553" y="211.267026" style="fill: #aaa190; stroke: #aaa190; stroke-width: 0.6"/>
      </g>
     </g>
    </g>
    <g id="xtick_7">
     <g id="line2d_9">
      <g>
       <use xlink:href="#m62d460047f" x="121.43874" y="211.267026" style="fill: #aaa190; stroke: #aaa190; stroke-width: 0.6"/>
      </g>
     </g>
    </g>
    <g id="xtick_8">
     <g id="line2d_10">
      <g>
       <use xlink:href="#m62d460047f" x="129.510771" y="211.267026" style="fill: #aaa190; stroke: #aaa190; stroke-width: 0.6"/>
      </g>
     </g>
    </g>
    <g id="xtick_9">
     <g id="line2d_11">
      <g>
       <use xlink:href="#m62d460047f" x="136.503082" y="211.267026" style="fill: #aaa190; stroke: #aaa190; stroke-width: 0.6"/>
      </g>
     </g>
    </g>
    <g id="xtick_10">
     <g id="line2d_12">
      <g>
       <use xlink:href="#m62d460047f" x="142.670738" y="211.267026" style="fill: #aaa190; stroke: #aaa190; stroke-width: 0.6"/>
      </g>
     </g>
    </g>
    <g id="xtick_11">
     <g id="line2d_13">
      <g>
       <use xlink:href="#m62d460047f" x="184.484234" y="211.267026" style="fill: #aaa190; stroke: #aaa190; stroke-width: 0.6"/>
      </g>
     </g>
    </g>
    <g id="xtick_12">
     <g id="line2d_14">
      <g>
       <use xlink:href="#m62d460047f" x="205.716231" y="211.267026" style="fill: #aaa190; stroke: #aaa190; stroke-width: 0.6"/>
      </g>
     </g>
    </g>
    <g id="xtick_13">
     <g id="line2d_15">
      <g>
       <use xlink:href="#m62d460047f" x="220.780574" y="211.267026" style="fill: #aaa190; stroke: #aaa190; stroke-width: 0.6"/>
      </g>
     </g>
    </g>
    <g id="xtick_14">
     <g id="line2d_16">
      <g>
       <use xlink:href="#m62d460047f" x="232.465385" y="211.267026" style="fill: #aaa190; stroke: #aaa190; stroke-width: 0.6"/>
      </g>
     </g>
    </g>
    <g id="xtick_15">
     <g id="line2d_17">
      <g>
       <use xlink:href="#m62d460047f" x="242.012571" y="211.267026" style="fill: #aaa190; stroke: #aaa190; stroke-width: 0.6"/>
      </g>
     </g>
    </g>
    <g id="xtick_16">
     <g id="line2d_18">
      <g>
       <use xlink:href="#m62d460047f" x="250.084602" y="211.267026" style="fill: #aaa190; stroke: #aaa190; stroke-width: 0.6"/>
      </g>
     </g>
    </g>
    <g id="xtick_17">
     <g id="line2d_19">
      <g>
       <use xlink:href="#m62d460047f" x="257.076914" y="211.267026" style="fill: #aaa190; stroke: #aaa190; stroke-width: 0.6"/>
      </g>
     </g>
    </g>
    <g id="xtick_18">
     <g id="line2d_20">
      <g>
       <use xlink:href="#m62d460047f" x="263.244569" y="211.267026" style="fill: #aaa190; stroke: #aaa190; stroke-width: 0.6"/>
      </g>
     </g>
    </g>
    <g id="xtick_19">
     <g id="line2d_21">
      <g>
       <use xlink:href="#m62d460047f" x="305.058065" y="211.267026" style="fill: #aaa190; stroke: #aaa190; stroke-width: 0.6"/>
      </g>
     </g>
    </g>
    <g id="text_3">
     <text style="font-size: 9.5px; font-family: 'IBM Plex Sans', system-ui, sans-serif; text-anchor: middle; fill: #aaa190" x="182.299702" y="239.517533" transform="rotate(-0 182.299702 239.517533)">out-of-sample variance per run (log scale)</text>
    </g>
   </g>
   <g id="matplotlib.axis_2">
    <g id="ytick_1">
     <g id="line2d_22">
      <path d="M 39.724615 211.267026 
L 324.874789 211.267026 
" clip-path="url(#pfe982ad7e7)" style="fill: none; stroke: #4c4536; stroke-opacity: 0.6; stroke-width: 0.6; stroke-linecap: square"/>
     </g>
     <g id="line2d_23">
      <defs>
       <path id="m762ac581d3" d="M 0 0 
L -3.5 0 
" style="stroke: #aaa190; stroke-width: 0.8"/>
      </defs>
      <g>
       <use xlink:href="#m762ac581d3" x="39.724615" y="211.267026" style="fill: #aaa190; stroke: #aaa190; stroke-width: 0.8"/>
      </g>
     </g>
     <g id="text_4">
      <text style="font-size: 8.5px; font-family: 'IBM Plex Sans', system-ui, sans-serif; text-anchor: end; fill: #aaa190" x="32.724615" y="214.49603" transform="rotate(-0 32.724615 214.49603)">0</text>
     </g>
    </g>
    <g id="ytick_2">
     <g id="line2d_24">
      <path d="M 39.724615 171.974522 
L 324.874789 171.974522 
" clip-path="url(#pfe982ad7e7)" style="fill: none; stroke: #4c4536; stroke-opacity: 0.6; stroke-width: 0.6; stroke-linecap: square"/>
     </g>
     <g id="line2d_25">
      <g>
       <use xlink:href="#m762ac581d3" x="39.724615" y="171.974522" style="fill: #aaa190; stroke: #aaa190; stroke-width: 0.8"/>
      </g>
     </g>
     <g id="text_5">
      <text style="font-size: 8.5px; font-family: 'IBM Plex Sans', system-ui, sans-serif; text-anchor: end; fill: #aaa190" x="32.724615" y="175.203526" transform="rotate(-0 32.724615 175.203526)">50</text>
     </g>
    </g>
    <g id="ytick_3">
     <g id="line2d_26">
      <path d="M 39.724615 132.682019 
L 324.874789 132.682019 
" clip-path="url(#pfe982ad7e7)" style="fill: none; stroke: #4c4536; stroke-opacity: 0.6; stroke-width: 0.6; stroke-linecap: square"/>
     </g>
     <g id="line2d_27">
      <g>
       <use xlink:href="#m762ac581d3" x="39.724615" y="132.682019" style="fill: #aaa190; stroke: #aaa190; stroke-width: 0.8"/>
      </g>
     </g>
     <g id="text_6">
      <text style="font-size: 8.5px; font-family: 'IBM Plex Sans', system-ui, sans-serif; text-anchor: end; fill: #aaa190" x="32.724615" y="135.911023" transform="rotate(-0 32.724615 135.911023)">100</text>
     </g>
    </g>
    <g id="ytick_4">
     <g id="line2d_28">
      <path d="M 39.724615 93.389515 
L 324.874789 93.389515 
" clip-path="url(#pfe982ad7e7)" style="fill: none; stroke: #4c4536; stroke-opacity: 0.6; stroke-width: 0.6; stroke-linecap: square"/>
     </g>
     <g id="line2d_29">
      <g>
       <use xlink:href="#m762ac581d3" x="39.724615" y="93.389515" style="fill: #aaa190; stroke: #aaa190; stroke-width: 0.8"/>
      </g>
     </g>
     <g id="text_7">
      <text style="font-size: 8.5px; font-family: 'IBM Plex Sans', system-ui, sans-serif; text-anchor: end; fill: #aaa190" x="32.724615" y="96.618519" transform="rotate(-0 32.724615 96.618519)">150</text>
     </g>
    </g>
    <g id="ytick_5">
     <g id="line2d_30">
      <path d="M 39.724615 54.097012 
L 324.874789 54.097012 
" clip-path="url(#pfe982ad7e7)" style="fill: none; stroke: #4c4536; stroke-opacity: 0.6; stroke-width: 0.6; stroke-linecap: square"/>
     </g>
     <g id="line2d_31">
      <g>
       <use xlink:href="#m762ac581d3" x="39.724615" y="54.097012" style="fill: #aaa190; stroke: #aaa190; stroke-width: 0.8"/>
      </g>
     </g>
     <g id="text_8">
      <text style="font-size: 8.5px; font-family: 'IBM Plex Sans', system-ui, sans-serif; text-anchor: end; fill: #aaa190" x="32.724615" y="57.326016" transform="rotate(-0 32.724615 57.326016)">200</text>
     </g>
    </g>
    <g id="text_9">
     <text style="font-size: 9.5px; font-family: 'IBM Plex Sans', system-ui, sans-serif; text-anchor: middle; fill: #aaa190" x="10.218013" y="114.312773" transform="rotate(-90 10.218013 114.312773)">runs</text>
    </g>
   </g>
   <g id="patch_3">
    <path d="M 52.685987 211.267026 
L 52.685987 210.481176 
L 58.577519 210.481176 
L 58.577519 197.907574 
L 64.469052 197.907574 
L 64.469052 197.121724 
L 70.360584 197.121724 
L 70.360584 194.764174 
L 76.252117 194.764174 
L 76.252117 204.194375 
L 82.143649 204.194375 
L 82.143649 196.335874 
L 88.035182 196.335874 
L 88.035182 205.766075 
L 93.926714 205.766075 
L 93.926714 194.764174 
L 99.818247 194.764174 
L 99.818247 189.263224 
L 105.709779 189.263224 
L 105.709779 188.477374 
L 111.601312 188.477374 
L 111.601312 182.190573 
L 117.492844 182.190573 
L 117.492844 171.188672 
L 123.384377 171.188672 
L 123.384377 162.544321 
L 129.275909 162.544321 
L 129.275909 164.116022 
L 135.167442 164.116022 
L 135.167442 168.831122 
L 141.058974 168.831122 
L 141.058974 164.116022 
L 146.950507 164.116022 
L 146.950507 163.330171 
L 152.842039 163.330171 
L 152.842039 162.544321 
L 158.733572 162.544321 
L 158.733572 191.620774 
L 164.625104 191.620774 
L 164.625104 193.192474 
L 170.516637 193.192474 
L 170.516637 199.479275 
L 176.408169 199.479275 
L 176.408169 197.121724 
L 182.299702 197.121724 
L 182.299702 197.121724 
L 188.191235 197.121724 
L 188.191235 199.479275 
L 194.082767 199.479275 
L 194.082767 193.192474 
L 199.9743 193.192474 
L 199.9743 191.620774 
L 205.865832 191.620774 
L 205.865832 184.548123 
L 211.757365 184.548123 
L 211.757365 181.404723 
L 217.648897 181.404723 
L 217.648897 179.833023 
L 223.54043 179.833023 
L 223.54043 168.831122 
L 229.431962 168.831122 
L 229.431962 140.540519 
L 235.323495 140.540519 
L 235.323495 124.037668 
L 241.215027 124.037668 
L 241.215027 102.033866 
L 247.10656 102.033866 
L 247.10656 90.246115 
L 252.998092 90.246115 
L 252.998092 96.532916 
L 258.889625 96.532916 
L 258.889625 119.322568 
L 264.781157 119.322568 
L 264.781157 164.116022 
L 270.67269 164.116022 
L 270.67269 150.75657 
L 276.564222 150.75657 
L 276.564222 167.259422 
L 282.455755 167.259422 
L 282.455755 174.332072 
L 288.347287 174.332072 
L 288.347287 191.620774 
L 294.23882 191.620774 
L 294.23882 200.265125 
L 300.130352 200.265125 
L 300.130352 197.121724 
L 306.021885 197.121724 
L 306.021885 210.481176 
L 311.913417 210.481176 
L 311.913417 211.267026 
" clip-path="url(#pfe982ad7e7)" style="fill: none; stroke: #aaa190; stroke-width: 1.1; stroke-linejoin: miter"/>
   </g>
   <g id="patch_4">
    <path d="M 52.685987 211.267026 
L 52.685987 211.267026 
L 58.577519 211.267026 
L 58.577519 211.267026 
L 64.469052 211.267026 
L 64.469052 211.267026 
L 70.360584 211.267026 
L 70.360584 211.267026 
L 76.252117 211.267026 
L 76.252117 211.267026 
L 82.143649 211.267026 
L 82.143649 211.267026 
L 88.035182 211.267026 
L 88.035182 211.267026 
L 93.926714 211.267026 
L 93.926714 211.267026 
L 99.818247 211.267026 
L 99.818247 210.481176 
L 105.709779 210.481176 
L 105.709779 201.050975 
L 111.601312 201.050975 
L 111.601312 201.836825 
L 117.492844 201.836825 
L 117.492844 198.693425 
L 123.384377 198.693425 
L 123.384377 191.620774 
L 129.275909 191.620774 
L 129.275909 175.903773 
L 135.167442 175.903773 
L 135.167442 149.18487 
L 141.058974 149.18487 
L 141.058974 104.391416 
L 146.950507 104.391416 
L 146.950507 142.11222 
L 152.842039 142.11222 
L 152.842039 196.335874 
L 158.733572 196.335874 
L 158.733572 208.909475 
L 164.625104 208.909475 
L 164.625104 210.481176 
L 170.516637 210.481176 
L 170.516637 208.123625 
L 176.408169 208.123625 
L 176.408169 197.121724 
L 182.299702 197.121724 
L 182.299702 180.618873 
L 188.191235 180.618873 
L 188.191235 140.540519 
L 194.082767 140.540519 
L 194.082767 122.465968 
L 199.9743 122.465968 
L 199.9743 135.039569 
L 205.865832 135.039569 
L 205.865832 127.181068 
L 211.757365 127.181068 
L 211.757365 155.471671 
L 217.648897 155.471671 
L 217.648897 193.978324 
L 223.54043 193.978324 
L 223.54043 204.194375 
L 229.431962 204.194375 
L 229.431962 199.479275 
L 235.323495 199.479275 
L 235.323495 168.831122 
L 241.215027 168.831122 
L 241.215027 107.534817 
L 247.10656 107.534817 
L 247.10656 98.104616 
L 252.998092 98.104616 
L 252.998092 60.383812 
L 258.889625 60.383812 
L 258.889625 26.59226 
L 264.781157 26.59226 
L 264.781157 92.603665 
L 270.67269 92.603665 
L 270.67269 164.901872 
L 276.564222 164.901872 
L 276.564222 203.408525 
L 282.455755 203.408525 
L 282.455755 211.267026 
L 288.347287 211.267026 
L 288.347287 211.267026 
L 294.23882 211.267026 
L 294.23882 211.267026 
L 300.130352 211.267026 
L 300.130352 211.267026 
L 306.021885 211.267026 
L 306.021885 211.267026 
L 311.913417 211.267026 
L 311.913417 211.267026 
" clip-path="url(#pfe982ad7e7)" style="fill: none; stroke-dasharray: 4.07,1.76; stroke-dashoffset: 0; stroke: #ece6d8; stroke-width: 1.1; stroke-linejoin: miter"/>
   </g>
   <g id="patch_5">
    <path d="M 52.685987 211.267026 
L 52.685987 211.267026 
L 58.577519 211.267026 
L 58.577519 211.267026 
L 64.469052 211.267026 
L 64.469052 211.267026 
L 70.360584 211.267026 
L 70.360584 211.267026 
L 76.252117 211.267026 
L 76.252117 208.123625 
L 82.143649 208.123625 
L 82.143649 204.980225 
L 88.035182 204.980225 
L 88.035182 201.050975 
L 93.926714 201.050975 
L 93.926714 194.764174 
L 99.818247 194.764174 
L 99.818247 189.263224 
L 105.709779 189.263224 
L 105.709779 187.691524 
L 111.601312 187.691524 
L 111.601312 178.261323 
L 117.492844 178.261323 
L 117.492844 171.188672 
L 123.384377 171.188672 
L 123.384377 168.045272 
L 129.275909 168.045272 
L 129.275909 157.043371 
L 135.167442 157.043371 
L 135.167442 160.972621 
L 141.058974 160.972621 
L 141.058974 157.829221 
L 146.950507 157.829221 
L 146.950507 161.758471 
L 152.842039 161.758471 
L 152.842039 160.186771 
L 158.733572 160.186771 
L 158.733572 160.972621 
L 164.625104 160.972621 
L 164.625104 163.330171 
L 170.516637 163.330171 
L 170.516637 169.616972 
L 176.408169 169.616972 
L 176.408169 162.544321 
L 182.299702 162.544321 
L 182.299702 161.758471 
L 188.191235 161.758471 
L 188.191235 162.544321 
L 194.082767 162.544321 
L 194.082767 149.97072 
L 199.9743 149.97072 
L 199.9743 155.471671 
L 205.865832 155.471671 
L 205.865832 142.89807 
L 211.757365 142.89807 
L 211.757365 155.471671 
L 217.648897 155.471671 
L 217.648897 162.544321 
L 223.54043 162.544321 
L 223.54043 146.04147 
L 229.431962 146.04147 
L 229.431962 152.32827 
L 235.323495 152.32827 
L 235.323495 154.685821 
L 241.215027 154.685821 
L 241.215027 152.32827 
L 247.10656 152.32827 
L 247.10656 149.18487 
L 252.998092 149.18487 
L 252.998092 150.75657 
L 258.889625 150.75657 
L 258.889625 146.04147 
L 264.781157 146.04147 
L 264.781157 172.760372 
L 270.67269 172.760372 
L 270.67269 183.762273 
L 276.564222 183.762273 
L 276.564222 189.263224 
L 282.455755 189.263224 
L 282.455755 193.978324 
L 288.347287 193.978324 
L 288.347287 208.123625 
L 294.23882 208.123625 
L 294.23882 211.267026 
L 300.130352 211.267026 
L 300.130352 208.909475 
L 306.021885 208.909475 
L 306.021885 211.267026 
L 311.913417 211.267026 
L 311.913417 211.267026 
" clip-path="url(#pfe982ad7e7)" style="fill: none; stroke: #f29ad6; stroke-width: 1.6; stroke-linejoin: miter"/>
   </g>
   <g id="line2d_32">
    <path d="M 259.726111 211.267026 
L 259.726111 17.358521 
" clip-path="url(#pfe982ad7e7)" style="fill: none; stroke-dasharray: 1.3,2.145; stroke-dashoffset: 0; stroke: #4c4536; stroke-width: 1.3"/>
   </g>
   <g id="patch_6">
    <path d="M 39.724615 211.267026 
L 39.724615 17.358521 
" style="fill: none; stroke: #4c4536; stroke-width: 0.8; stroke-linejoin: miter; stroke-linecap: square"/>
   </g>
   <g id="patch_7">
    <path d="M 39.724615 211.267026 
L 324.874789 211.267026 
" style="fill: none; stroke: #4c4536; stroke-width: 0.8; stroke-linejoin: miter; stroke-linecap: square"/>
   </g>
   <g id="text_10">
    <text style="font-weight: 700; font-size: 11px; font-family: 'IBM Plex Sans', system-ui, sans-serif; text-anchor: start; fill: #ece6d8" x="39.724615" y="11.358521" transform="rotate(-0 39.724615 11.358521)">Per-run OOS variance</text>
   </g>
   <g id="legend_1">
    <g id="patch_8">
     <path d="M 47.374615 31.467193 
L 64.374615 31.467193 
L 64.374615 25.517193 
L 47.374615 25.517193 
L 47.374615 31.467193 
z
" style="fill: none; stroke: #aaa190; stroke-width: 1.1; stroke-linejoin: miter"/>
    </g>
    <g id="text_11">
     <text style="font-size: 8.5px; font-family: 'IBM Plex Sans', system-ui, sans-serif; text-anchor: start; fill: #aaa190" x="71.174615" y="31.467193" transform="rotate(-0 71.174615 31.467193)">CLA</text>
    </g>
    <g id="patch_9">
     <path d="M 47.374615 44.217857 
L 64.374615 44.217857 
L 64.374615 38.267857 
L 47.374615 38.267857 
L 47.374615 44.217857 
z
" style="fill: none; stroke-dasharray: 4.07,1.76; stroke-dashoffset: 0; stroke: #ece6d8; stroke-width: 1.1; stroke-linejoin: miter"/>
    </g>
    <g id="text_12">
     <text style="font-size: 8.5px; font-family: 'IBM Plex Sans', system-ui, sans-serif; text-anchor: start; fill: #aaa190" x="71.174615" y="44.217857" transform="rotate(-0 71.174615 44.217857)">IVP</text>
    </g>
    <g id="patch_10">
     <path d="M 47.374615 56.968521 
L 64.374615 56.968521 
L 64.374615 51.018521 
L 47.374615 51.018521 
L 47.374615 56.968521 
z
" style="fill: none; stroke: #f29ad6; stroke-width: 1.6; stroke-linejoin: miter"/>
    </g>
    <g id="text_13">
     <text style="font-size: 8.5px; font-family: 'IBM Plex Sans', system-ui, sans-serif; text-anchor: start; fill: #aaa190" x="71.174615" y="56.968521" transform="rotate(-0 71.174615 56.968521)">HRP</text>
    </g>
    <g id="line2d_33">
     <path d="M 47.374615 66.744185 
L 55.874615 66.744185 
L 64.374615 66.744185 
" style="fill: none; stroke-dasharray: 1.3,2.145; stroke-dashoffset: 0; stroke: #4c4536; stroke-width: 1.3"/>
    </g>
    <g id="text_14">
     <text style="font-size: 8.5px; font-family: 'IBM Plex Sans', system-ui, sans-serif; text-anchor: start; fill: #aaa190" x="71.174615" y="69.719185" transform="rotate(-0 71.174615 69.719185)">EW (median)</text>
    </g>
   </g>
  </g>
  <g id="axes_2">
   <g id="patch_11">
    <path d="M 354.099644 211.267026 
L 544.19976 211.267026 
L 544.19976 17.358521 
L 354.099644 17.358521 
z
" style="fill: #17140f"/>
   </g>
   <g id="matplotlib.axis_3">
    <g id="xtick_20">
     <g id="line2d_34">
      <path d="M 362.740558 211.267026 
L 362.740558 17.358521 
" clip-path="url(#pab30671af3)" style="fill: none; stroke: #4c4536; stroke-opacity: 0.6; stroke-width: 0.6; stroke-linecap: square"/>
     </g>
     <g id="line2d_35">
      <g>
       <use xlink:href="#mfe43602b47" x="362.740558" y="211.267026" style="fill: #aaa190; stroke: #aaa190; stroke-width: 0.8"/>
      </g>
     </g>
     <g id="text_15">
      <text style="font-size: 8.5px; font-family: 'IBM Plex Sans', system-ui, sans-serif; text-anchor: middle; fill: #aaa190" x="362.740558" y="224.725033" transform="rotate(-0 362.740558 224.725033)">−4</text>
     </g>
    </g>
    <g id="xtick_21">
     <g id="line2d_36">
      <path d="M 405.94513 211.267026 
L 405.94513 17.358521 
" clip-path="url(#pab30671af3)" style="fill: none; stroke: #4c4536; stroke-opacity: 0.6; stroke-width: 0.6; stroke-linecap: square"/>
     </g>
     <g id="line2d_37">
      <g>
       <use xlink:href="#mfe43602b47" x="405.94513" y="211.267026" style="fill: #aaa190; stroke: #aaa190; stroke-width: 0.8"/>
      </g>
     </g>
     <g id="text_16">
      <text style="font-size: 8.5px; font-family: 'IBM Plex Sans', system-ui, sans-serif; text-anchor: middle; fill: #aaa190" x="405.94513" y="224.725033" transform="rotate(-0 405.94513 224.725033)">−2</text>
     </g>
    </g>
    <g id="xtick_22">
     <g id="line2d_38">
      <path d="M 449.149702 211.267026 
L 449.149702 17.358521 
" clip-path="url(#pab30671af3)" style="fill: none; stroke: #4c4536; stroke-opacity: 0.6; stroke-width: 0.6; stroke-linecap: square"/>
     </g>
     <g id="line2d_39">
      <g>
       <use xlink:href="#mfe43602b47" x="449.149702" y="211.267026" style="fill: #aaa190; stroke: #aaa190; stroke-width: 0.8"/>
      </g>
     </g>
     <g id="text_17">
      <text style="font-size: 8.5px; font-family: 'IBM Plex Sans', system-ui, sans-serif; text-anchor: middle; fill: #aaa190" x="449.149702" y="224.725033" transform="rotate(-0 449.149702 224.725033)">0</text>
     </g>
    </g>
    <g id="xtick_23">
     <g id="line2d_40">
      <path d="M 492.354274 211.267026 
L 492.354274 17.358521 
" clip-path="url(#pab30671af3)" style="fill: none; stroke: #4c4536; stroke-opacity: 0.6; stroke-width: 0.6; stroke-linecap: square"/>
     </g>
     <g id="line2d_41">
      <g>
       <use xlink:href="#mfe43602b47" x="492.354274" y="211.267026" style="fill: #aaa190; stroke: #aaa190; stroke-width: 0.8"/>
      </g>
     </g>
     <g id="text_18">
      <text style="font-size: 8.5px; font-family: 'IBM Plex Sans', system-ui, sans-serif; text-anchor: middle; fill: #aaa190" x="492.354274" y="224.725033" transform="rotate(-0 492.354274 224.725033)">2</text>
     </g>
    </g>
    <g id="xtick_24">
     <g id="line2d_42">
      <path d="M 535.558846 211.267026 
L 535.558846 17.358521 
" clip-path="url(#pab30671af3)" style="fill: none; stroke: #4c4536; stroke-opacity: 0.6; stroke-width: 0.6; stroke-linecap: square"/>
     </g>
     <g id="line2d_43">
      <g>
       <use xlink:href="#mfe43602b47" x="535.558846" y="211.267026" style="fill: #aaa190; stroke: #aaa190; stroke-width: 0.8"/>
      </g>
     </g>
     <g id="text_19">
      <text style="font-size: 8.5px; font-family: 'IBM Plex Sans', system-ui, sans-serif; text-anchor: middle; fill: #aaa190" x="535.558846" y="224.725033" transform="rotate(-0 535.558846 224.725033)">4</text>
     </g>
    </g>
    <g id="text_20">
     <text style="font-size: 9.5px; font-family: 'IBM Plex Sans', system-ui, sans-serif; text-anchor: middle; fill: #aaa190" x="449.149702" y="237.985541" transform="rotate(-0 449.149702 237.985541)">log2 variance ratio (&gt; 0: HRP lower)</text>
    </g>
   </g>
   <g id="matplotlib.axis_4">
    <g id="ytick_6">
     <g id="line2d_44">
      <path d="M 354.099644 211.267026 
L 544.19976 211.267026 
" clip-path="url(#pab30671af3)" style="fill: none; stroke: #4c4536; stroke-opacity: 0.6; stroke-width: 0.6; stroke-linecap: square"/>
     </g>
     <g id="line2d_45">
      <g>
       <use xlink:href="#m762ac581d3" x="354.099644" y="211.267026" style="fill: #aaa190; stroke: #aaa190; stroke-width: 0.8"/>
      </g>
     </g>
     <g id="text_21">
      <text style="font-size: 8.5px; font-family: 'IBM Plex Sans', system-ui, sans-serif; text-anchor: end; fill: #aaa190" x="347.099644" y="214.49603" transform="rotate(-0 347.099644 214.49603)">0</text>
     </g>
    </g>
    <g id="ytick_7">
     <g id="line2d_46">
      <path d="M 354.099644 189.412024 
L 544.19976 189.412024 
" clip-path="url(#pab30671af3)" style="fill: none; stroke: #4c4536; stroke-opacity: 0.6; stroke-width: 0.6; stroke-linecap: square"/>
     </g>
     <g id="line2d_47">
      <g>
       <use xlink:href="#m762ac581d3" x="354.099644" y="189.412024" style="fill: #aaa190; stroke: #aaa190; stroke-width: 0.8"/>
      </g>
     </g>
     <g id="text_22">
      <text style="font-size: 8.5px; font-family: 'IBM Plex Sans', system-ui, sans-serif; text-anchor: end; fill: #aaa190" x="347.099644" y="192.641028" transform="rotate(-0 347.099644 192.641028)">20</text>
     </g>
    </g>
    <g id="ytick_8">
     <g id="line2d_48">
      <path d="M 354.099644 167.557022 
L 544.19976 167.557022 
" clip-path="url(#pab30671af3)" style="fill: none; stroke: #4c4536; stroke-opacity: 0.6; stroke-width: 0.6; stroke-linecap: square"/>
     </g>
     <g id="line2d_49">
      <g>
       <use xlink:href="#m762ac581d3" x="354.099644" y="167.557022" style="fill: #aaa190; stroke: #aaa190; stroke-width: 0.8"/>
      </g>
     </g>
     <g id="text_23">
      <text style="font-size: 8.5px; font-family: 'IBM Plex Sans', system-ui, sans-serif; text-anchor: end; fill: #aaa190" x="347.099644" y="170.786026" transform="rotate(-0 347.099644 170.786026)">40</text>
     </g>
    </g>
    <g id="ytick_9">
     <g id="line2d_50">
      <path d="M 354.099644 145.70202 
L 544.19976 145.70202 
" clip-path="url(#pab30671af3)" style="fill: none; stroke: #4c4536; stroke-opacity: 0.6; stroke-width: 0.6; stroke-linecap: square"/>
     </g>
     <g id="line2d_51">
      <g>
       <use xlink:href="#m762ac581d3" x="354.099644" y="145.70202" style="fill: #aaa190; stroke: #aaa190; stroke-width: 0.8"/>
      </g>
     </g>
     <g id="text_24">
      <text style="font-size: 8.5px; font-family: 'IBM Plex Sans', system-ui, sans-serif; text-anchor: end; fill: #aaa190" x="347.099644" y="148.931024" transform="rotate(-0 347.099644 148.931024)">60</text>
     </g>
    </g>
    <g id="ytick_10">
     <g id="line2d_52">
      <path d="M 354.099644 123.847018 
L 544.19976 123.847018 
" clip-path="url(#pab30671af3)" style="fill: none; stroke: #4c4536; stroke-opacity: 0.6; stroke-width: 0.6; stroke-linecap: square"/>
     </g>
     <g id="line2d_53">
      <g>
       <use xlink:href="#m762ac581d3" x="354.099644" y="123.847018" style="fill: #aaa190; stroke: #aaa190; stroke-width: 0.8"/>
      </g>
     </g>
     <g id="text_25">
      <text style="font-size: 8.5px; font-family: 'IBM Plex Sans', system-ui, sans-serif; text-anchor: end; fill: #aaa190" x="347.099644" y="127.076022" transform="rotate(-0 347.099644 127.076022)">80</text>
     </g>
    </g>
    <g id="ytick_11">
     <g id="line2d_54">
      <path d="M 354.099644 101.992016 
L 544.19976 101.992016 
" clip-path="url(#pab30671af3)" style="fill: none; stroke: #4c4536; stroke-opacity: 0.6; stroke-width: 0.6; stroke-linecap: square"/>
     </g>
     <g id="line2d_55">
      <g>
       <use xlink:href="#m762ac581d3" x="354.099644" y="101.992016" style="fill: #aaa190; stroke: #aaa190; stroke-width: 0.8"/>
      </g>
     </g>
     <g id="text_26">
      <text style="font-size: 8.5px; font-family: 'IBM Plex Sans', system-ui, sans-serif; text-anchor: end; fill: #aaa190" x="347.099644" y="105.22102" transform="rotate(-0 347.099644 105.22102)">100</text>
     </g>
    </g>
    <g id="ytick_12">
     <g id="line2d_56">
      <path d="M 354.099644 80.137014 
L 544.19976 80.137014 
" clip-path="url(#pab30671af3)" style="fill: none; stroke: #4c4536; stroke-opacity: 0.6; stroke-width: 0.6; stroke-linecap: square"/>
     </g>
     <g id="line2d_57">
      <g>
       <use xlink:href="#m762ac581d3" x="354.099644" y="80.137014" style="fill: #aaa190; stroke: #aaa190; stroke-width: 0.8"/>
      </g>
     </g>
     <g id="text_27">
      <text style="font-size: 8.5px; font-family: 'IBM Plex Sans', system-ui, sans-serif; text-anchor: end; fill: #aaa190" x="347.099644" y="83.366018" transform="rotate(-0 347.099644 83.366018)">120</text>
     </g>
    </g>
    <g id="ytick_13">
     <g id="line2d_58">
      <path d="M 354.099644 58.282012 
L 544.19976 58.282012 
" clip-path="url(#pab30671af3)" style="fill: none; stroke: #4c4536; stroke-opacity: 0.6; stroke-width: 0.6; stroke-linecap: square"/>
     </g>
     <g id="line2d_59">
      <g>
       <use xlink:href="#m762ac581d3" x="354.099644" y="58.282012" style="fill: #aaa190; stroke: #aaa190; stroke-width: 0.8"/>
      </g>
     </g>
     <g id="text_28">
      <text style="font-size: 8.5px; font-family: 'IBM Plex Sans', system-ui, sans-serif; text-anchor: end; fill: #aaa190" x="347.099644" y="61.511016" transform="rotate(-0 347.099644 61.511016)">140</text>
     </g>
    </g>
    <g id="ytick_14">
     <g id="line2d_60">
      <path d="M 354.099644 36.42701 
L 544.19976 36.42701 
" clip-path="url(#pab30671af3)" style="fill: none; stroke: #4c4536; stroke-opacity: 0.6; stroke-width: 0.6; stroke-linecap: square"/>
     </g>
     <g id="line2d_61">
      <g>
       <use xlink:href="#m762ac581d3" x="354.099644" y="36.42701" style="fill: #aaa190; stroke: #aaa190; stroke-width: 0.8"/>
      </g>
     </g>
     <g id="text_29">
      <text style="font-size: 8.5px; font-family: 'IBM Plex Sans', system-ui, sans-serif; text-anchor: end; fill: #aaa190" x="347.099644" y="39.656014" transform="rotate(-0 347.099644 39.656014)">160</text>
     </g>
    </g>
   </g>
   <g id="patch_12">
    <path d="M 362.740558 211.267026 
L 424.84713 211.267026 
L 424.84713 207.988775 
L 427.547416 207.988775 
L 427.547416 200.339525 
L 430.247702 200.339525 
L 430.247702 199.246775 
L 432.947988 199.246775 
L 432.947988 183.948273 
L 435.648273 183.948273 
L 435.648273 171.928022 
L 438.348559 171.928022 
L 438.348559 180.670023 
L 441.048845 180.670023 
L 441.048845 155.536771 
L 443.749131 155.536771 
L 443.749131 110.734017 
L 449.149702 110.734017 
L 449.149702 57.189262 
L 451.849988 57.189262 
L 451.849988 50.632762 
L 454.550273 50.632762 
L 454.550273 26.59226 
L 457.250559 26.59226 
L 457.250559 35.33426 
L 459.950845 35.33426 
L 459.950845 49.540012 
L 462.651131 49.540012 
L 462.651131 75.766014 
L 465.351416 75.766014 
L 465.351416 89.971765 
L 468.051702 89.971765 
L 468.051702 91.064515 
L 470.751988 91.064515 
L 470.751988 83.415264 
L 473.452274 83.415264 
L 473.452274 80.137014 
L 476.152559 80.137014 
L 476.152559 100.899266 
L 478.852845 100.899266 
L 478.852845 143.51652 
L 481.553131 143.51652 
L 481.553131 153.351271 
L 484.253417 153.351271 
L 484.253417 178.484523 
L 486.953702 178.484523 
L 486.953702 194.875774 
L 489.653988 194.875774 
L 489.653988 200.339525 
L 492.354274 200.339525 
L 492.354274 204.710525 
L 495.05456 204.710525 
L 495.05456 205.803275 
L 497.754845 205.803275 
L 497.754845 207.988775 
L 500.455131 207.988775 
L 500.455131 200.339525 
L 503.155417 200.339525 
L 503.155417 209.081525 
L 505.855703 209.081525 
L 505.855703 210.174276 
L 511.256274 210.174276 
L 511.256274 209.081525 
L 513.95656 209.081525 
L 513.95656 211.267026 
L 519.357131 211.267026 
L 519.357131 210.174276 
L 522.057417 210.174276 
L 522.057417 211.267026 
L 527.457988 211.267026 
L 527.457988 210.174276 
L 532.85856 210.174276 
L 532.85856 211.267026 
L 535.558846 211.267026 
L 535.558846 211.267026 
" clip-path="url(#pab30671af3)" style="fill: none; stroke-dasharray: 4.07,1.76; stroke-dashoffset: 0; stroke: #ece6d8; stroke-width: 1.1; stroke-linejoin: miter"/>
   </g>
   <g id="patch_13">
    <path d="M 362.740558 211.267026 
L 362.740558 199.246775 
L 365.440844 199.246775 
L 365.440844 209.081525 
L 368.14113 209.081525 
L 368.14113 207.988775 
L 370.841416 207.988775 
L 370.841416 204.710525 
L 373.541701 204.710525 
L 373.541701 205.803275 
L 376.241987 205.803275 
L 376.241987 207.988775 
L 378.942273 207.988775 
L 378.942273 210.174276 
L 381.642559 210.174276 
L 381.642559 205.803275 
L 384.342844 205.803275 
L 384.342844 210.174276 
L 387.04313 210.174276 
L 387.04313 206.896025 
L 392.443701 206.896025 
L 392.443701 207.988775 
L 395.143987 207.988775 
L 395.143987 206.896025 
L 397.844273 206.896025 
L 397.844273 201.432275 
L 400.544559 201.432275 
L 400.544559 199.246775 
L 403.244844 199.246775 
L 403.244844 203.617775 
L 405.94513 203.617775 
L 405.94513 197.061274 
L 408.645416 197.061274 
L 408.645416 198.154024 
L 411.345702 198.154024 
L 411.345702 201.432275 
L 414.045987 201.432275 
L 414.045987 193.783024 
L 416.746273 193.783024 
L 416.746273 192.690274 
L 419.446559 192.690274 
L 419.446559 188.319274 
L 422.146845 188.319274 
L 422.146845 189.412024 
L 424.84713 189.412024 
L 424.84713 182.855523 
L 427.547416 182.855523 
L 427.547416 161.000521 
L 430.247702 161.000521 
L 430.247702 162.093271 
L 432.947988 162.093271 
L 432.947988 156.629521 
L 435.648273 156.629521 
L 435.648273 142.42377 
L 438.348559 142.42377 
L 438.348559 157.722271 
L 441.048845 157.722271 
L 441.048845 124.939768 
L 446.449416 124.939768 
L 446.449416 112.919517 
L 449.149702 112.919517 
L 449.149702 116.197767 
L 451.849988 116.197767 
L 451.849988 96.528266 
L 454.550273 96.528266 
L 454.550273 108.548517 
L 457.250559 108.548517 
L 457.250559 107.455767 
L 459.950845 107.455767 
L 459.950845 109.641267 
L 462.651131 109.641267 
L 462.651131 115.105017 
L 465.351416 115.105017 
L 465.351416 120.568768 
L 468.051702 120.568768 
L 468.051702 123.847018 
L 470.751988 123.847018 
L 470.751988 139.145519 
L 473.452274 139.145519 
L 473.452274 122.754268 
L 476.152559 122.754268 
L 476.152559 148.98027 
L 478.852845 148.98027 
L 478.852845 150.07302 
L 481.553131 150.07302 
L 481.553131 170.835272 
L 484.253417 170.835272 
L 484.253417 165.371522 
L 486.953702 165.371522 
L 486.953702 173.020772 
L 489.653988 173.020772 
L 489.653988 181.762773 
L 492.354274 181.762773 
L 492.354274 179.577273 
L 497.754845 179.577273 
L 497.754845 189.412024 
L 500.455131 189.412024 
L 500.455131 193.783024 
L 505.855703 193.783024 
L 505.855703 194.875774 
L 508.555988 194.875774 
L 508.555988 198.154024 
L 511.256274 198.154024 
L 511.256274 204.710525 
L 513.95656 204.710525 
L 513.95656 203.617775 
L 516.656845 203.617775 
L 516.656845 207.988775 
L 519.357131 207.988775 
L 519.357131 210.174276 
L 522.057417 210.174276 
L 522.057417 211.267026 
L 524.757703 211.267026 
L 524.757703 210.174276 
L 527.457988 210.174276 
L 527.457988 211.267026 
L 532.85856 211.267026 
L 532.85856 205.803275 
L 535.558846 205.803275 
L 535.558846 211.267026 
L 535.558846 211.267026 
" clip-path="url(#pab30671af3)" style="fill: none; stroke: #aaa190; stroke-width: 1.1; stroke-linejoin: miter"/>
   </g>
   <g id="line2d_62">
    <path d="M 449.149702 211.267026 
L 449.149702 17.358521 
" clip-path="url(#pab30671af3)" style="fill: none; stroke: #f29ad6; stroke-linecap: square"/>
   </g>
   <g id="patch_14">
    <path d="M 354.099644 211.267026 
L 354.099644 17.358521 
" style="fill: none; stroke: #4c4536; stroke-width: 0.8; stroke-linejoin: miter; stroke-linecap: square"/>
   </g>
   <g id="patch_15">
    <path d="M 354.099644 211.267026 
L 544.19976 211.267026 
" style="fill: none; stroke: #4c4536; stroke-width: 0.8; stroke-linejoin: miter; stroke-linecap: square"/>
   </g>
   <g id="text_30">
    <text style="font-weight: 700; font-size: 11px; font-family: 'IBM Plex Sans', system-ui, sans-serif; text-anchor: start; fill: #ece6d8" x="354.099644" y="11.358521" transform="rotate(-0 354.099644 11.358521)">Paired, per run (clipped at ±4)</text>
   </g>
   <g id="legend_2">
    <g id="patch_16">
     <path d="M 361.749644 31.467193 
L 378.749644 31.467193 
L 378.749644 25.517193 
L 361.749644 25.517193 
L 361.749644 31.467193 
z
" style="fill: none; stroke-dasharray: 4.07,1.76; stroke-dashoffset: 0; stroke: #ece6d8; stroke-width: 1.1; stroke-linejoin: miter"/>
    </g>
    <g id="text_31">
     <text style="font-size: 8.5px; font-family: 'IBM Plex Sans', system-ui, sans-serif; text-anchor: start; fill: #aaa190" x="385.549644" y="31.467193" transform="rotate(-0 385.549644 31.467193)">IVP / HRP</text>
    </g>
    <g id="patch_17">
     <path d="M 361.749644 44.217857 
L 378.749644 44.217857 
L 378.749644 38.267857 
L 361.749644 38.267857 
L 361.749644 44.217857 
z
" style="fill: none; stroke: #aaa190; stroke-width: 1.1; stroke-linejoin: miter"/>
    </g>
    <g id="text_32">
     <text style="font-size: 8.5px; font-family: 'IBM Plex Sans', system-ui, sans-serif; text-anchor: start; fill: #aaa190" x="385.549644" y="44.217857" transform="rotate(-0 385.549644 44.217857)">CLA / HRP</text>
    </g>
   </g>
  </g>
 </g>
 <defs>
  <clipPath id="pfe982ad7e7">
   <rect x="39.724615" y="17.358521" width="285.150174" height="193.908504"/>
  </clipPath>
  <clipPath id="pab30671af3">
   <rect x="354.099644" y="17.358521" width="190.100116" height="193.908504"/>
  </clipPath>
 </defs>
</svg>
