<svg xmlns="http://www.w3.org/2000/svg" viewBox="0 0 128 128" role="img" aria-label="OpenQuant icon">
  <defs>
    <linearGradient id="oq-bg" x1="0" y1="0" x2="1" y2="1">
      <stop offset="0%" stop-color="#1a1e2e"/>
      <stop offset="100%" stop-color="#252a3a"/>
    </linearGradient>
    <filter id="glow">
      <feGaussianBlur stdDeviation="3" result="blur"/>
      <feMerge>
        <feMergeNode in="blur"/>
        <feMergeNode in="SourceGraphic"/>
      </feMerge>
    </filter>
  </defs>

  <rect width="128" height="128" rx="24" fill="url(#oq-bg)"/>

  <!-- Three-segment pinwheel matching org avatar: magenta, cyan, yellow -->
  <g transform="translate(64 64)" filter="url(#glow)">
    <!-- Magenta/pink segment (top-right) -->
    <path d="M4,-6 L14,-26 L30,-20 L26,-2 Z" fill="#e44de0"/>
    <path d="M26,-2 L34,10 L22,18 L12,6 Z" fill="#d040cc"/>

    <!-- Cyan/blue segment (left) -->
    <path d="M4,-6 L14,-26 L30,-20 L26,-2 Z" fill="#52c8f5" transform="rotate(120)"/>
    <path d="M26,-2 L34,10 L22,18 L12,6 Z" fill="#42b8e8" transform="rotate(120)"/>

    <!-- Yellow segment (bottom-right) -->
    <path d="M4,-6 L14,-26 L30,-20 L26,-2 Z" fill="#f0e050" transform="rotate(240)"/>
    <path d="M26,-2 L34,10 L22,18 L12,6 Z" fill="#e0d040" transform="rotate(240)"/>
  </g>
</svg>
