<svg xmlns="http://www.w3.org/2000/svg" width="1200" height="300" viewBox="0 0 1200 300" role="img" aria-label="OpenQuant-rs banner">
  <defs>
    <linearGradient id="bg" x1="0" y1="0" x2="1" y2="1">
      <stop offset="0%" stop-color="#0b1020" />
      <stop offset="50%" stop-color="#13243a" />
      <stop offset="100%" stop-color="#1b3b4f" />
    </linearGradient>
    <linearGradient id="accent" x1="0" y1="0" x2="1" y2="0">
      <stop offset="0%" stop-color="#64ffda" />
      <stop offset="100%" stop-color="#5bc0eb" />
    </linearGradient>
    <filter id="soft" x="-10%" y="-10%" width="120%" height="120%">
      <feGaussianBlur stdDeviation="12" />
    </filter>
  </defs>

  <rect width="1200" height="300" fill="url(#bg)" />

  <g opacity="0.4">
    <circle cx="980" cy="70" r="60" fill="#2c5a7a" filter="url(#soft)" />
    <circle cx="1080" cy="220" r="90" fill="#1f6f8b" filter="url(#soft)" />
    <circle cx="160" cy="220" r="80" fill="#1a4560" filter="url(#soft)" />
  </g>

  <g opacity="0.2" stroke="url(#accent)" stroke-width="2" fill="none">
    <path d="M120 70 C 240 20, 360 20, 480 70" />
    <path d="M120 230 C 260 280, 420 280, 560 230" />
    <path d="M640 150 C 760 90, 900 90, 1040 150" />
  </g>

  <g>
    <rect x="80" y="64" width="8" height="172" rx="4" fill="url(#accent)" />
    <text x="110" y="140" font-size="56" font-family="Segoe UI, Helvetica, Arial, sans-serif" fill="#e6f1ff" font-weight="700">OpenQuant-rs</text>
    <text x="110" y="190" font-size="20" font-family="Segoe UI, Helvetica, Arial, sans-serif" fill="#a8b2d1">Modern ML methods in finance, inspired by AFML</text>
  </g>

  <g>
    <rect x="110" y="212" width="240" height="6" rx="3" fill="url(#accent)" />
    <text x="360" y="220" font-size="14" font-family="Segoe UI, Helvetica, Arial, sans-serif" fill="#8adcf0">AFML -> Rust</text>
  </g>
</svg>
